<?xml version="1.0" encoding="UTF-8"?>
<svg width="320px" height="25px" viewBox="0 0 320 25" version="1.1" xmlns="http://www.w3.org/2000/svg" xmlns:xlink="http://www.w3.org/1999/xlink">
    <!-- Generator: Sketch 62 (91390) - https://sketch.com -->
    <title>Group 34</title>
    <desc>Created with Sketch.</desc>
    <g id="Home" stroke="none" stroke-width="1" fill="none" fill-rule="evenodd">
        <g id="Group-12" transform="translate(-12.000000, -1.000000)">
            <g id="Group-34" transform="translate(11.000000, 0.000000)">
                <path d="M2.772,20 C2.952,20 3.114,19.838 3.114,19.658 L3.114,15.068 L6.552,15.068 L8.892,19.73 C8.982,19.91 9.072,20 9.288,20 L10.152,20 C10.458,20 10.584,19.712 10.458,19.478 L7.992,14.906 C9.558,14.276 10.656,12.89 10.656,11.234 C10.656,9.092 8.892,7.4 6.732,7.4 L2.07,7.4 C1.872,7.4 1.728,7.562 1.728,7.742 L1.728,19.658 C1.728,19.838 1.872,20 2.07,20 L2.772,20 Z M6.642,13.88 L3.15,13.88 L3.15,8.714 L6.642,8.714 C8.028,8.714 9.234,9.884 9.234,11.252 C9.234,12.728 8.028,13.88 6.642,13.88 Z M14.332,20.198 C15.61,20.198 16.474,19.568 16.906,19.136 L17.068,19.694 C17.122,19.874 17.194,20 17.41,20 L17.752,20 C17.968,20 18.148,19.82 18.148,19.604 L18.148,14.996 C18.148,12.548 17.698,11.504 15.574,11.504 C14.206,11.504 13.126,11.864 12.712,12.044 C12.514,12.134 12.388,12.242 12.46,12.494 L12.64,12.98 C12.712,13.178 12.82,13.286 13.036,13.196 C13.414,13.07 14.368,12.71 15.502,12.71 C16.69,12.71 16.888,13.466 16.87,14.996 C16.87,14.996 15.97,14.726 15.088,14.726 C12.946,14.726 11.758,15.896 11.758,17.48 C11.758,19.154 12.874,20.198 14.332,20.198 Z M14.566,18.992 C13.648,18.992 13.072,18.326 13.072,17.48 C13.072,16.418 13.936,15.86 15.088,15.86 C15.916,15.86 16.582,16.04 16.852,16.184 L16.852,17.876 C16.492,18.416 15.592,18.992 14.566,18.992 Z M22.832,20.198 C23.948,20.198 24.812,19.784 25.172,19.532 C25.388,19.388 25.424,19.262 25.316,18.992 L25.154,18.614 C25.064,18.416 24.956,18.254 24.632,18.452 C24.29,18.668 23.768,18.992 22.994,18.992 C22.526,18.992 22.256,18.668 22.256,17.804 L22.256,12.836 L24.704,12.836 C24.938,12.836 25.118,12.656 25.118,12.44 L25.118,12.08 C25.118,11.846 24.938,11.684 24.704,11.684 L22.256,11.684 L22.256,9.344 C22.256,9.128 22.094,8.93 21.878,8.948 L21.32,8.984 C21.122,9.002 20.924,9.164 20.924,9.38 L20.924,11.684 L19.826,11.684 C19.574,11.684 19.412,11.846 19.412,12.08 L19.412,12.44 C19.412,12.656 19.574,12.836 19.826,12.836 L20.924,12.836 L20.924,17.894 C20.924,19.19 21.248,20.198 22.832,20.198 Z M30.216,20.198 C31.656,20.198 32.754,19.64 33.258,19.244 C33.564,19.01 33.492,18.92 33.33,18.668 L33.114,18.362 C32.898,18.038 32.772,18.11 32.484,18.308 C32.016,18.614 31.332,18.992 30.234,18.992 C28.722,18.992 27.552,17.534 27.516,16.148 L33.564,16.148 C33.744,16.148 33.924,16.004 33.942,15.788 C33.96,15.644 33.978,15.428 33.978,15.284 C33.978,13.106 32.394,11.504 30.216,11.504 C27.696,11.504 26.184,13.502 26.184,15.842 C26.184,18.218 27.696,20.198 30.216,20.198 Z M32.646,15.086 L27.534,15.086 C27.696,13.79 28.812,12.71 30.216,12.71 C31.638,12.71 32.61,13.862 32.646,15.086 Z M38.86,20.198 C40.426,20.198 41.488,19.118 41.488,19.118 L41.596,19.658 C41.668,19.856 41.776,20 41.956,20 L42.28,20 C42.496,20 42.694,19.82 42.694,19.604 L42.694,7.796 C42.694,7.598 42.496,7.4 42.28,7.4 L41.776,7.4 C41.56,7.4 41.38,7.598 41.38,7.796 L41.38,12.026 C41.38,12.026 40.444,11.504 39.076,11.504 C36.574,11.504 35.134,13.394 35.134,15.824 C35.134,18.2 36.754,20.198 38.86,20.198 Z M39.022,18.992 C37.51,18.992 36.484,17.462 36.484,15.842 C36.484,14.186 37.474,12.71 39.256,12.71 C40.408,12.71 41.38,13.178 41.38,13.178 L41.38,17.66 C41.38,17.66 40.516,18.992 39.022,18.992 Z M54.852,20.18 C57.462,20.18 59.298,18.992 59.298,18.992 C59.37,18.938 59.442,18.794 59.442,18.704 L59.442,14.582 C59.442,14.402 59.298,14.24 59.118,14.24 L56.004,14.24 C55.806,14.24 55.662,14.384 55.662,14.582 L55.662,15.248 C55.662,15.428 55.806,15.572 56.004,15.572 L58.074,15.572 L58.074,18.092 C58.074,18.092 56.814,18.848 54.834,18.848 C51.99,18.848 49.83,16.418 49.83,13.646 C49.83,10.856 51.99,8.48 54.834,8.48 C56.04,8.48 57.336,9.074 58.254,9.884 C58.452,10.064 58.56,10.082 58.722,9.902 C58.866,9.74 59.064,9.56 59.226,9.398 C59.37,9.254 59.352,9.038 59.208,8.894 C57.984,7.85 56.67,7.22 54.852,7.22 C51.252,7.22 48.354,10.118 48.354,13.718 C48.354,17.318 51.252,20.18 54.852,20.18 Z M62.326,20 C62.524,20 62.722,19.82 62.722,19.604 L62.722,13.844 C62.722,13.844 63.37,12.782 64.972,12.782 C65.368,12.782 65.674,12.926 65.872,13.016 C66.07,13.106 66.268,13.088 66.358,12.818 L66.592,12.17 C66.79,11.594 65.764,11.504 65.134,11.504 C63.406,11.504 62.578,12.566 62.578,12.566 L62.434,11.972 C62.38,11.774 62.236,11.684 62.074,11.684 L61.786,11.684 C61.57,11.684 61.39,11.882 61.39,12.08 L61.39,19.604 C61.39,19.82 61.57,20 61.786,20 L62.326,20 Z M71.078,20.198 C72.518,20.198 73.616,19.64 74.12,19.244 C74.426,19.01 74.354,18.92 74.192,18.668 L73.976,18.362 C73.76,18.038 73.634,18.11 73.346,18.308 C72.878,18.614 72.194,18.992 71.096,18.992 C69.584,18.992 68.414,17.534 68.378,16.148 L74.426,16.148 C74.606,16.148 74.786,16.004 74.804,15.788 C74.822,15.644 74.84,15.428 74.84,15.284 C74.84,13.106 73.256,11.504 71.078,11.504 C68.558,11.504 67.046,13.502 67.046,15.842 C67.046,18.218 68.558,20.198 71.078,20.198 Z M73.508,15.086 L68.396,15.086 C68.558,13.79 69.674,12.71 71.078,12.71 C72.5,12.71 73.472,13.862 73.508,15.086 Z M78.444,20.198 C79.722,20.198 80.586,19.568 81.018,19.136 L81.18,19.694 C81.234,19.874 81.306,20 81.522,20 L81.864,20 C82.08,20 82.26,19.82 82.26,19.604 L82.26,14.996 C82.26,12.548 81.81,11.504 79.686,11.504 C78.318,11.504 77.238,11.864 76.824,12.044 C76.626,12.134 76.5,12.242 76.572,12.494 L76.752,12.98 C76.824,13.178 76.932,13.286 77.148,13.196 C77.526,13.07 78.48,12.71 79.614,12.71 C80.802,12.71 81,13.466 80.982,14.996 C80.982,14.996 80.082,14.726 79.2,14.726 C77.058,14.726 75.87,15.896 75.87,17.48 C75.87,19.154 76.986,20.198 78.444,20.198 Z M78.678,18.992 C77.76,18.992 77.184,18.326 77.184,17.48 C77.184,16.418 78.048,15.86 79.2,15.86 C80.028,15.86 80.694,16.04 80.964,16.184 L80.964,17.876 C80.604,18.416 79.704,18.992 78.678,18.992 Z M86.944,20.198 C88.06,20.198 88.924,19.784 89.284,19.532 C89.5,19.388 89.536,19.262 89.428,18.992 L89.266,18.614 C89.176,18.416 89.068,18.254 88.744,18.452 C88.402,18.668 87.88,18.992 87.106,18.992 C86.638,18.992 86.368,18.668 86.368,17.804 L86.368,12.836 L88.816,12.836 C89.05,12.836 89.23,12.656 89.23,12.44 L89.23,12.08 C89.23,11.846 89.05,11.684 88.816,11.684 L86.368,11.684 L86.368,9.344 C86.368,9.128 86.206,8.93 85.99,8.948 L85.432,8.984 C85.234,9.002 85.036,9.164 85.036,9.38 L85.036,11.684 L83.938,11.684 C83.686,11.684 83.524,11.846 83.524,12.08 L83.524,12.44 C83.524,12.656 83.686,12.836 83.938,12.836 L85.036,12.836 L85.036,17.894 C85.036,19.19 85.36,20.198 86.944,20.198 Z M98.274,20.198 C100.578,20.198 102.45,18.2 102.45,15.824 C102.45,13.484 100.578,11.504 98.274,11.504 C95.97,11.504 94.098,13.484 94.098,15.824 C94.098,18.2 95.97,20.198 98.274,20.198 Z M98.274,18.992 C96.636,18.992 95.412,17.552 95.412,15.824 C95.412,14.132 96.636,12.71 98.274,12.71 C99.912,12.71 101.118,14.132 101.118,15.824 C101.118,17.552 99.912,18.992 98.274,18.992 Z M105.154,20 C105.352,20 105.55,19.82 105.55,19.604 L105.55,13.862 C105.55,13.862 106.54,12.71 108.106,12.71 C109.33,12.71 109.87,13.448 109.87,15.032 L109.87,19.604 C109.87,19.82 110.05,20 110.266,20 L110.806,20 C111.004,20 111.202,19.82 111.202,19.604 L111.202,15.212 C111.202,13.07 110.608,11.504 108.196,11.504 C106.468,11.504 105.406,12.566 105.406,12.566 L105.226,11.936 C105.19,11.756 105.082,11.684 104.902,11.684 L104.614,11.684 C104.398,11.684 104.218,11.882 104.218,12.08 L104.218,19.604 C104.218,19.82 104.398,20 104.614,20 L105.154,20 Z" id="RatedGreaton" fill="#181818" fill-rule="nonzero"></path>
                <g id="ELxulGhTqqjKc3yEXTch0w-Trustpilot-logo-148x36px" transform="translate(121.000000, 1.000000)" fill-rule="nonzero">
                    <g id="Type" transform="translate(25.961538, 8.653846)" fill="#181818">
                        <path d="M0.0617176763,0.0522509259 L10.1745998,0.0522509259 L10.1745998,1.91586728 L6.19821807,1.91586728 L6.19821807,12.3921779 L4.01164896,12.3921779 L4.01164896,1.91586728 L0.0529008654,1.91586728 L0.0529008654,0.0522509259 L0.0617176763,0.0522509259 Z M9.74257607,3.45726959 L11.61174,3.45726959 L11.61174,5.18155015 L11.6470072,5.18155015 C11.7087249,4.9377125 11.8233434,4.70258333 11.9908628,4.47616265 C12.1583823,4.24974197 12.3611689,4.03202978 12.5992228,3.84915154 C12.8372767,3.65756481 13.101781,3.50952052 13.3927358,3.38760169 C13.6836905,3.27439135 13.9834621,3.21343194 14.2832337,3.21343194 C14.5124707,3.21343194 14.6799902,3.22214043 14.7681583,3.23084892 C14.8563264,3.23955741 14.9444945,3.25697438 15.0414794,3.26568286 L15.0414794,5.16413317 C14.9004104,5.13800771 14.7593415,5.12059073 14.6094557,5.10317376 C14.4595699,5.08575679 14.3185009,5.0770483 14.177432,5.0770483 C13.8423931,5.0770483 13.5249879,5.1467162 13.2252164,5.27734351 C12.9254448,5.40797083 12.6697573,5.60826604 12.449337,5.86081218 C12.2289167,6.12206681 12.0525805,6.43557237 11.9203284,6.81874584 C11.7880762,7.2019193 11.7263585,7.63734365 11.7263585,8.13372744 L11.7263585,12.3834694 L9.73375924,12.3834694 L9.73375924,3.45726959 L9.74257607,3.45726959 Z M24.2021459,12.3921779 L22.2448139,12.3921779 L22.2448139,11.1468642 L22.2095467,11.1468642 C21.962676,11.5997056 21.6011867,11.9567535 21.1162621,12.2267166 C20.6313375,12.4966798 20.1375961,12.6360155 19.6350379,12.6360155 C18.4447684,12.6360155 17.580721,12.3486354 17.0517123,11.7651668 C16.5227036,11.1816982 16.2581993,10.3021409 16.2581993,9.12649502 L16.2581993,3.45726959 L18.2507986,3.45726959 L18.2507986,8.93490836 C18.2507986,9.71867224 18.4006844,10.2760154 18.7092727,10.5982295 C19.0090443,10.9204435 19.4410681,11.0859048 19.9877103,11.0859048 C20.4109172,11.0859048 20.7547728,11.0249454 21.0369108,10.8943181 C21.3190488,10.7636907 21.5482858,10.5982295 21.7158052,10.3805173 C21.8921415,10.1715136 22.0155769,9.91025891 22.0949282,9.61417033 C22.1742795,9.31808175 22.2095467,8.99586773 22.2095467,8.64752826 L22.2095467,3.46597808 L24.2021459,3.46597808 L24.2021459,12.3921779 Z M27.5966182,9.52708551 C27.6583358,10.1018456 27.8787561,10.5024361 28.257879,10.7375653 C28.6458186,10.9639859 29.1042928,11.0859048 29.6421183,11.0859048 C29.8272713,11.0859048 30.0388748,11.0684878 30.2769287,11.0423623 C30.5149826,11.0162369 30.7442196,10.9552774 30.9470063,10.876901 C31.1586098,10.7985247 31.3261291,10.6766058 31.4671981,10.5198531 C31.5994503,10.3631003 31.661168,10.1628051 31.6523511,9.91025891 C31.6435343,9.6577128 31.5465494,9.44870911 31.3702132,9.29195631 C31.193877,9.12649502 30.9734567,9.00457621 30.7001356,8.90007436 C30.4268144,8.804281 30.1182261,8.71719611 29.7655536,8.64752826 C29.4128812,8.57786034 29.0602088,8.49948394 28.6987195,8.42110754 C28.3284134,8.34273113 27.9669242,8.23822929 27.6230686,8.12501896 C27.279213,8.01180863 26.9706245,7.85505583 26.6973034,7.65476061 C26.4239823,7.46317388 26.203562,7.21062778 26.0448594,6.90583072 C25.87734,6.60103363 25.7979887,6.22656867 25.7979887,5.77372731 C25.7979887,5.286052 25.9214241,4.88546157 26.159478,4.55453904 C26.3975319,4.22361651 26.7061202,3.96236188 27.0676095,3.76206666 C27.4379156,3.56177145 27.8434888,3.42243565 28.2931462,3.33535077 C28.7428036,3.25697438 29.1748273,3.21343194 29.5804006,3.21343194 C30.0476916,3.21343194 30.4973489,3.26568286 30.9205559,3.36147623 C31.3437628,3.45726959 31.7317024,3.61402237 32.075558,3.84044305 C32.4194137,4.05815525 32.7015517,4.34553533 32.9307887,4.69387484 C33.1600258,5.04221434 33.3010948,5.46893024 33.3628125,5.96531404 L31.2820451,5.96531404 C31.1850602,5.49505571 30.9734567,5.17284166 30.6296011,5.01608889 C30.2857455,4.85062762 29.888989,4.77225123 29.4481484,4.77225123 C29.3070794,4.77225123 29.1395601,4.78095972 28.9455902,4.80708518 C28.7516203,4.83321064 28.5752842,4.87675308 28.3989479,4.9377125 C28.2314285,4.99867191 28.0903595,5.09446527 27.9669242,5.2163841 C27.8523056,5.33830293 27.790588,5.49505571 27.790588,5.69535092 C27.790588,5.93918857 27.8787561,6.1307753 28.0462755,6.27881959 C28.2137949,6.42686388 28.4342151,6.54878271 28.7075363,6.65328456 C28.9808575,6.74907792 29.2894458,6.8361628 29.6421183,6.90583072 C29.9947907,6.97549857 30.35628,7.05387498 30.726586,7.13225138 C31.0880752,7.21062778 31.4407477,7.31512963 31.7934201,7.42833996 C32.1460926,7.54155028 32.454681,7.69830309 32.7280021,7.8985983 C33.0013232,8.09889351 33.2217435,8.34273113 33.3892629,8.63881971 C33.5567823,8.93490836 33.6449504,9.30937327 33.6449504,9.74479769 C33.6449504,10.2760154 33.5215151,10.7201483 33.2746444,11.0946133 C33.0277736,11.4603697 32.7103684,11.7651668 32.3224288,11.9915875 C31.9344891,12.2180082 31.4936485,12.3921779 31.0175408,12.4966798 C30.541433,12.6011816 30.0653252,12.6534326 29.5980342,12.6534326 C29.0249415,12.6534326 28.4959329,12.5924731 28.0110082,12.4618458 C27.5260836,12.3312185 27.1028767,12.1396318 26.7502043,11.8870857 C26.3975319,11.625831 26.1153939,11.303617 25.9126072,10.9204435 C25.7098206,10.5372701 25.6040189,10.0757202 25.5863852,9.54450248 L27.5966182,9.54450248 L27.5966182,9.52708551 Z M34.173959,3.45726959 L35.6816337,3.45726959 L35.6816337,0.775055398 L37.674233,0.775055398 L37.674233,3.45726959 L39.4728624,3.45726959 L39.4728624,4.92900401 L37.674233,4.92900401 L37.674233,9.70125521 C37.674233,9.91025891 37.6830498,10.0844287 37.7006834,10.2411815 C37.7183171,10.3892257 37.7624011,10.5198531 37.8241188,10.6243549 C37.8858365,10.7288568 37.9828214,10.8072332 38.1150736,10.8594841 C38.2473257,10.911735 38.4148451,10.9378605 38.6440822,10.9378605 C38.7851512,10.9378605 38.9262201,10.9378605 39.0672891,10.929152 C39.2083581,10.9204435 39.3494271,10.9030266 39.490496,10.8681926 L39.490496,12.3921779 C39.2700758,12.4183034 39.0496555,12.4357203 38.8468688,12.4618458 C38.6352654,12.4879713 38.4236619,12.4966798 38.2032416,12.4966798 C37.674233,12.4966798 37.2510261,12.4444288 36.9336209,12.3486354 C36.6162157,12.2528421 36.3605282,12.1047978 36.184192,11.9132111 C35.9990389,11.7216244 35.8844204,11.4864952 35.8138859,11.1991151 C35.7521682,10.911735 35.7080842,10.5808125 35.6992674,10.215056 L35.6992674,4.94642099 L34.1915927,4.94642099 L34.1915927,3.45726959 L34.173959,3.45726959 Z M40.8835522,3.45726959 L42.7703497,3.45726959 L42.7703497,4.66774938 L42.8056169,4.66774938 C43.0877549,4.14524012 43.4756946,3.77948364 43.9782528,3.55306296 C44.480811,3.32664228 45.0186365,3.21343194 45.6093628,3.21343194 C46.3235245,3.21343194 46.9407013,3.33535077 47.4697099,3.58789691 C47.9987186,3.83173456 48.4395591,4.17136558 48.7922316,4.60678997 C49.144904,5.04221434 49.4005915,5.54730663 49.5769277,6.12206681 C49.753264,6.696827 49.841432,7.31512963 49.841432,7.96826622 C49.841432,8.56915186 49.7620807,9.15262053 49.6033781,9.70996369 C49.4446755,10.2760154 49.2066216,10.7723992 48.8892164,11.2078236 C48.5718112,11.643248 48.166238,11.982879 47.6724966,12.2441336 C47.1787552,12.5053883 46.6056624,12.6360155 45.9355848,12.6360155 C45.64463,12.6360155 45.3536753,12.6098901 45.0627205,12.5576392 C44.7717657,12.5053883 44.4896279,12.4183034 44.2251235,12.305093 C43.9606192,12.1918827 43.7049316,12.0438384 43.4845114,11.8609601 C43.2552743,11.678082 43.0701212,11.4690782 42.9114186,11.2339491 L42.8761514,11.2339491 L42.8761514,15.6926948 L40.8835522,15.6926948 L40.8835522,3.45726959 Z M47.8488328,7.93343223 C47.8488328,7.5328418 47.7959319,7.14095986 47.6901302,6.75778641 C47.5843284,6.37461296 47.4256258,6.04369043 47.2140224,5.74760185 C47.0024189,5.45151326 46.7379146,5.2163841 46.4293263,5.04221434 C46.1119211,4.8680446 45.7504318,4.77225123 45.3448585,4.77225123 C44.5072614,4.77225123 43.8724511,5.05963132 43.4492441,5.63439151 C43.0260372,6.20915169 42.8144338,6.97549857 42.8144338,7.93343223 C42.8144338,8.38627361 42.8673346,8.804281 42.9819532,9.18745446 C43.0965717,9.57062792 43.2552743,9.90155042 43.4845114,10.180222 C43.7049316,10.4588937 43.969436,10.6766058 44.2780244,10.8333586 C44.5866127,10.9988199 44.948102,11.0771963 45.3536753,11.0771963 C45.8121495,11.0771963 46.1912724,10.9814029 46.5086776,10.7985247 C46.8260827,10.6156465 47.0817702,10.3718088 47.2845569,10.0844287 C47.4873435,9.7883401 47.6372293,9.45741759 47.7253974,9.08295261 C47.8047487,8.70848763 47.8488328,8.32531417 47.8488328,7.93343223 Z M51.3667403,0.0522509259 L53.3593396,0.0522509259 L53.3593396,1.91586728 L51.3667403,1.91586728 L51.3667403,0.0522509259 Z M51.3667403,3.45726959 L53.3593396,3.45726959 L53.3593396,12.3921779 L51.3667403,12.3921779 L51.3667403,3.45726959 Z M55.1403354,0.0522509259 L57.1329347,0.0522509259 L57.1329347,12.3921779 L55.1403354,12.3921779 L55.1403354,0.0522509259 Z M63.2429846,12.6360155 C62.5200061,12.6360155 61.8763789,12.5140967 61.312103,12.2789676 C60.7478272,12.0438384 60.2717194,11.7129159 59.8749629,11.303617 C59.4870232,10.8856095 59.1872516,10.3892257 58.9844649,9.81446561 C58.7816783,9.23970542 58.6758766,8.60398579 58.6758766,7.91601526 C58.6758766,7.23675323 58.7816783,6.60974212 58.9844649,6.03498194 C59.1872516,5.46022175 59.4870232,4.96383796 59.8749629,4.54583055 C60.2629025,4.12782315 60.7478272,3.8056091 61.312103,3.57047994 C61.8763789,3.33535077 62.5200061,3.21343194 63.2429846,3.21343194 C63.9659631,3.21343194 64.6095903,3.33535077 65.1738662,3.57047994 C65.7381421,3.8056091 66.2142499,4.13653163 66.6110064,4.54583055 C66.9989461,4.96383796 67.2987176,5.46022175 67.5015043,6.03498194 C67.7042909,6.60974212 67.8100927,7.23675323 67.8100927,7.91601526 C67.8100927,8.60398579 67.7042909,9.23970542 67.5015043,9.81446561 C67.2987176,10.3892257 66.9989461,10.8856095 66.6110064,11.303617 C66.2230667,11.7216244 65.7381421,12.0438384 65.1738662,12.2789676 C64.6095903,12.5140967 63.9659631,12.6360155 63.2429846,12.6360155 Z M63.2429846,11.0771963 C63.6838252,11.0771963 64.0717649,10.9814029 64.3979868,10.7985247 C64.7242088,10.6156465 64.9887132,10.3718088 65.2003166,10.0757202 C65.4119201,9.77963161 65.5618059,9.44000063 65.6676076,9.06553565 C65.7645925,8.69107067 65.8174934,8.30789721 65.8174934,7.91601526 C65.8174934,7.5328418 65.7645925,7.15837682 65.6676076,6.77520339 C65.5706227,6.39202993 65.4119201,6.0611074 65.2003166,5.76501882 C64.9887132,5.46893024 64.7242088,5.23380107 64.3979868,5.05092283 C64.0717649,4.8680446 63.6838252,4.77225123 63.2429846,4.77225123 C62.8021441,4.77225123 62.4142044,4.8680446 62.0879824,5.05092283 C61.7617604,5.23380107 61.4972561,5.47763873 61.2856526,5.76501882 C61.0740491,6.0611074 60.9241633,6.39202993 60.8183616,6.77520339 C60.7213767,7.15837682 60.6684759,7.5328418 60.6684759,7.91601526 C60.6684759,8.30789721 60.7213767,8.69107067 60.8183616,9.06553565 C60.9153465,9.44000063 61.0740491,9.77963161 61.2856526,10.0757202 C61.4972561,10.3718088 61.7617604,10.6156465 62.0879824,10.7985247 C62.4142044,10.9901114 62.8021441,11.0771963 63.2429846,11.0771963 Z M68.3920025,3.45726959 L69.8996769,3.45726959 L69.8996769,0.775055398 L71.892276,0.775055398 L71.892276,3.45726959 L73.6909053,3.45726959 L73.6909053,4.92900401 L71.892276,4.92900401 L71.892276,9.70125521 C71.892276,9.91025891 71.9010927,10.0844287 71.9187268,10.2411815 C71.9363602,10.3892257 71.9804443,10.5198531 72.0421618,10.6243549 C72.1038793,10.7288568 72.2008643,10.8072332 72.3331167,10.8594841 C72.4653691,10.911735 72.6328882,10.9378605 72.8621256,10.9378605 C73.003194,10.9378605 73.144263,10.9378605 73.2853321,10.929152 C73.4264012,10.9204435 73.5674703,10.9030266 73.7085394,10.8681926 L73.7085394,12.3921779 C73.4881187,12.4183034 73.2676987,12.4357203 73.0649121,12.4618458 C72.8533082,12.4879713 72.6417049,12.4966798 72.4212849,12.4966798 C71.892276,12.4966798 71.4690695,12.4444288 71.1516639,12.3486354 C70.834259,12.2528421 70.5785716,12.1047978 70.402235,11.9132111 C70.2170818,11.7216244 70.1024635,11.4864952 70.0319293,11.1991151 C69.9702111,10.911735 69.926127,10.5808125 69.9173103,10.215056 L69.9173103,4.94642099 L68.4096359,4.94642099 L68.4096359,3.45726959 L68.3920025,3.45726959 Z" id="Shape"></path>
                    </g>
                    <g id="Star">
                        <polygon id="Shape" fill="#00B67A" points="23.6340751 8.67109636 14.6090467 8.67109636 11.8213932 0 9.02502831 8.67109636 0 8.66230215 7.30887907 14.0267735 4.51251414 22.6890756 11.8213932 17.3333985 19.1215609 22.6890756 16.3339074 14.0267735 23.6340751 8.67109636"></polygon>
                        <polygon id="Shape" fill="#005128" points="16.9611294 15.9878835 16.3339074 14.0267735 11.8213932 17.3333985"></polygon>
                    </g>
                </g>
                <g id="Group-36" transform="translate(237.000000, 6.000000)">
                    <rect id="Rectangle" fill="#74CF10" x="0" y="0" width="15" height="15"></rect>
                    <rect id="Rectangle-Copy-2" fill="#74CF10" x="17" y="0" width="15" height="15"></rect>
                    <rect id="Rectangle-Copy-3" fill="#74CF10" x="34" y="0" width="15" height="15"></rect>
                    <rect id="Rectangle-Copy-4" fill="#74CF10" x="51" y="0" width="15" height="15"></rect>
                    <g id="Group-16" transform="translate(69.000000, 0.000000)" fill="#E5E5E5">
                        <rect id="Rectangle-Copy-5" x="0" y="0" width="15" height="15"></rect>
                    </g>
                    <path d="M7,10.3883648 L9.60714286,9.74842767 L10.6964286,13 L7,10.3883648 Z M13,6.18553459 L8.41071429,6.18553459 L7,2 L5.58928571,6.18553459 L1,6.18553459 L4.71428571,8.77987421 L3.30357143,12.9654088 L7.01785714,10.3710692 L9.30357143,8.77987421 L13,6.18553459 L13,6.18553459 L13,6.18553459 L13,6.18553459 Z" id="Shape" fill="#FFFFFF" fill-rule="nonzero"></path>
                    <path d="M24,10.3883648 L26.6071429,9.74842767 L27.6964286,13 L24,10.3883648 Z M30,6.18553459 L25.4107143,6.18553459 L24,2 L22.5892857,6.18553459 L18,6.18553459 L21.7142857,8.77987421 L20.3035714,12.9654088 L24.0178571,10.3710692 L26.3035714,8.77987421 L30,6.18553459 L30,6.18553459 L30,6.18553459 L30,6.18553459 Z" id="Shape-Copy" fill="#FFFFFF" fill-rule="nonzero"></path>
                    <path d="M42,10.3883648 L44.6071429,9.74842767 L45.6964286,13 L42,10.3883648 Z M48,6.18553459 L43.4107143,6.18553459 L42,2 L40.5892857,6.18553459 L36,6.18553459 L39.7142857,8.77987421 L38.3035714,12.9654088 L42.0178571,10.3710692 L44.3035714,8.77987421 L48,6.18553459 L48,6.18553459 L48,6.18553459 L48,6.18553459 Z" id="Shape-Copy-2" fill="#FFFFFF" fill-rule="nonzero"></path>
                    <path d="M59,10.3883648 L61.6071429,9.74842767 L62.6964286,13 L59,10.3883648 Z M65,6.18553459 L60.4107143,6.18553459 L59,2 L57.5892857,6.18553459 L53,6.18553459 L56.7142857,8.77987421 L55.3035714,12.9654088 L59.0178571,10.3710692 L61.3035714,8.77987421 L65,6.18553459 L65,6.18553459 L65,6.18553459 L65,6.18553459 Z" id="Shape-Copy-3" fill="#FFFFFF" fill-rule="nonzero"></path>
                    <path d="M76,10.3883648 L78.6071429,9.74842767 L79.6964286,13 L76,10.3883648 Z M82,6.18553459 L77.4107143,6.18553459 L76,2 L74.5892857,6.18553459 L70,6.18553459 L73.7142857,8.77987421 L72.3035714,12.9654088 L76.0178571,10.3710692 L78.3035714,8.77987421 L82,6.18553459 L82,6.18553459 L82,6.18553459 L82,6.18553459 Z" id="Shape-Copy-4" fill="#FFFFFF" fill-rule="nonzero"></path>
                </g>
            </g>
        </g>
    </g>
</svg>