<?xml version="1.0" encoding="UTF-8"?>
<svg width="343px" height="33px" viewBox="0 0 343 33" version="1.1" xmlns="http://www.w3.org/2000/svg" xmlns:xlink="http://www.w3.org/1999/xlink">
    <!-- Generator: Sketch 62 (91390) - https://sketch.com -->
    <title>Slice</title>
    <desc>Created with Sketch.</desc>
    <g id="Home" stroke="none" stroke-width="1" fill="none" fill-rule="evenodd">
        <g id="Group-4" fill-rule="nonzero">
            <path d="M56.3,24 C58.532,24 60.098,22.542 60.098,20.526 C60.098,18.888 58.91,18.006 57.956,17.61 L57.956,17.574 C58.784,17.07 59.702,16.17 59.702,14.712 C59.702,12.822 58.244,11.4 56.048,11.4 L52.07,11.4 C51.872,11.4 51.728,11.562 51.728,11.742 L51.728,23.658 C51.728,23.838 51.872,24 52.07,24 L56.3,24 Z M55.814,17.052 L53.078,17.052 L53.078,12.642 L55.814,12.642 C57.29,12.642 58.172,13.506 58.172,14.802 C58.172,16.062 57.29,17.052 55.814,17.052 Z M56.21,22.794 L53.042,22.794 L53.042,18.294 L56.138,18.294 C57.506,18.294 58.586,19.23 58.586,20.508 C58.586,21.804 57.668,22.794 56.21,22.794 Z M62.856,24 C63.054,24 63.252,23.82 63.252,23.604 L63.252,17.844 C63.252,17.844 63.9,16.782 65.502,16.782 C65.898,16.782 66.204,16.926 66.402,17.016 C66.6,17.106 66.798,17.088 66.888,16.818 L67.122,16.17 C67.32,15.594 66.294,15.504 65.664,15.504 C63.936,15.504 63.108,16.566 63.108,16.566 L62.964,15.972 C62.91,15.774 62.766,15.684 62.604,15.684 L62.316,15.684 C62.1,15.684 61.92,15.882 61.92,16.08 L61.92,23.604 C61.92,23.82 62.1,24 62.316,24 L62.856,24 Z M71.734,24.198 C74.038,24.198 75.91,22.2 75.91,19.824 C75.91,17.484 74.038,15.504 71.734,15.504 C69.43,15.504 67.558,17.484 67.558,19.824 C67.558,22.2 69.43,24.198 71.734,24.198 Z M71.734,22.992 C70.096,22.992 68.872,21.552 68.872,19.824 C68.872,18.132 70.096,16.71 71.734,16.71 C73.372,16.71 74.578,18.132 74.578,19.824 C74.578,21.552 73.372,22.992 71.734,22.992 Z M80.558,24.198 C82.052,24.198 82.826,23.442 83.132,23.118 L83.294,23.64 C83.348,23.856 83.438,24 83.672,24 L83.96,24 C84.158,24 84.338,23.82 84.338,23.604 L84.338,16.08 C84.338,15.882 84.158,15.684 83.96,15.684 L83.402,15.684 C83.186,15.684 83.024,15.882 83.024,16.08 L83.024,21.786 C82.646,22.218 81.908,22.992 80.666,22.992 C79.46,22.992 78.92,22.236 78.92,20.58 L78.92,16.08 C78.92,15.882 78.74,15.684 78.524,15.684 L77.984,15.684 C77.75,15.684 77.588,15.882 77.588,16.08 L77.588,20.562 C77.588,22.758 78.164,24.198 80.558,24.198 Z M90.048,27.942 C91.938,27.942 93.684,26.898 93.684,24.054 L93.684,16.08 C93.684,15.882 93.486,15.684 93.27,15.684 L93.018,15.684 C92.802,15.684 92.712,15.81 92.622,15.972 L92.496,16.35 C92.496,16.35 91.506,15.504 90.012,15.504 C87.744,15.504 86.124,17.466 86.124,19.842 C86.124,22.272 87.78,24.198 90.066,24.198 C91.434,24.198 92.37,23.46 92.37,23.46 L92.37,24.054 C92.37,25.998 91.362,26.718 90.048,26.718 C89.13,26.718 88.41,26.214 87.96,25.836 C87.762,25.656 87.546,25.656 87.42,25.854 L87.06,26.376 C86.97,26.502 87.006,26.736 87.15,26.862 C87.582,27.258 88.734,27.942 90.048,27.942 Z M90.246,22.974 C88.662,22.974 87.474,21.624 87.474,19.824 C87.474,18.204 88.5,16.728 90.156,16.728 C91.506,16.728 92.352,17.736 92.352,17.736 L92.352,22.29 C92.352,22.29 91.398,22.974 90.246,22.974 Z M96.928,24 C97.126,24 97.324,23.82 97.324,23.604 L97.324,17.898 C97.324,17.898 98.296,16.71 99.88,16.71 C101.158,16.71 101.626,17.628 101.626,19.212 L101.626,23.604 C101.626,23.82 101.806,24 102.022,24 L102.58,24 C102.778,24 102.976,23.82 102.976,23.604 L102.976,19.212 C102.976,16.782 102.04,15.504 99.97,15.504 C98.296,15.504 97.324,16.566 97.324,16.566 L97.324,11.796 C97.324,11.598 97.126,11.4 96.928,11.4 L96.388,11.4 C96.172,11.4 95.992,11.598 95.992,11.796 L95.992,23.604 C95.992,23.82 96.172,24 96.388,24 L96.928,24 Z M107.552,24.198 C108.668,24.198 109.532,23.784 109.892,23.532 C110.108,23.388 110.144,23.262 110.036,22.992 L109.874,22.614 C109.784,22.416 109.676,22.254 109.352,22.452 C109.01,22.668 108.488,22.992 107.714,22.992 C107.246,22.992 106.976,22.668 106.976,21.804 L106.976,16.836 L109.424,16.836 C109.658,16.836 109.838,16.656 109.838,16.44 L109.838,16.08 C109.838,15.846 109.658,15.684 109.424,15.684 L106.976,15.684 L106.976,13.344 C106.976,13.128 106.814,12.93 106.598,12.948 L106.04,12.984 C105.842,13.002 105.644,13.164 105.644,13.38 L105.644,15.684 L104.546,15.684 C104.294,15.684 104.132,15.846 104.132,16.08 L104.132,16.44 C104.132,16.656 104.294,16.836 104.546,16.836 L105.644,16.836 L105.644,21.894 C105.644,23.19 105.968,24.198 107.552,24.198 Z M117.406,24.198 C118.522,24.198 119.386,23.784 119.746,23.532 C119.962,23.388 119.998,23.262 119.89,22.992 L119.728,22.614 C119.638,22.416 119.53,22.254 119.206,22.452 C118.864,22.668 118.342,22.992 117.568,22.992 C117.1,22.992 116.83,22.668 116.83,21.804 L116.83,16.836 L119.278,16.836 C119.512,16.836 119.692,16.656 119.692,16.44 L119.692,16.08 C119.692,15.846 119.512,15.684 119.278,15.684 L116.83,15.684 L116.83,13.344 C116.83,13.128 116.668,12.93 116.452,12.948 L115.894,12.984 C115.696,13.002 115.498,13.164 115.498,13.38 L115.498,15.684 L114.4,15.684 C114.148,15.684 113.986,15.846 113.986,16.08 L113.986,16.44 C113.986,16.656 114.148,16.836 114.4,16.836 L115.498,16.836 L115.498,21.894 C115.498,23.19 115.822,24.198 117.406,24.198 Z M124.916,24.198 C127.22,24.198 129.092,22.2 129.092,19.824 C129.092,17.484 127.22,15.504 124.916,15.504 C122.612,15.504 120.74,17.484 120.74,19.824 C120.74,22.2 122.612,24.198 124.916,24.198 Z M124.916,22.992 C123.278,22.992 122.054,21.552 122.054,19.824 C122.054,18.132 123.278,16.71 124.916,16.71 C126.554,16.71 127.76,18.132 127.76,19.824 C127.76,21.552 126.554,22.992 124.916,22.992 Z M136.228,28.284 C136.372,28.284 136.534,28.158 136.588,28.032 L141.79,16.152 C141.916,15.882 141.79,15.684 141.466,15.684 L140.8,15.684 C140.638,15.684 140.494,15.774 140.44,15.918 L137.632,22.524 L137.596,22.524 L135.238,15.918 C135.184,15.774 135.04,15.684 134.878,15.684 L134.122,15.684 C133.798,15.684 133.69,15.864 133.798,16.134 L136.84,23.982 L135.238,27.78 C135.112,28.068 135.256,28.284 135.58,28.284 L136.228,28.284 Z M146.618,24.198 C148.922,24.198 150.794,22.2 150.794,19.824 C150.794,17.484 148.922,15.504 146.618,15.504 C144.314,15.504 142.442,17.484 142.442,19.824 C142.442,22.2 144.314,24.198 146.618,24.198 Z M146.618,22.992 C144.98,22.992 143.756,21.552 143.756,19.824 C143.756,18.132 144.98,16.71 146.618,16.71 C148.256,16.71 149.462,18.132 149.462,19.824 C149.462,21.552 148.256,22.992 146.618,22.992 Z M155.442,24.198 C156.936,24.198 157.71,23.442 158.016,23.118 L158.178,23.64 C158.232,23.856 158.322,24 158.556,24 L158.844,24 C159.042,24 159.222,23.82 159.222,23.604 L159.222,16.08 C159.222,15.882 159.042,15.684 158.844,15.684 L158.286,15.684 C158.07,15.684 157.908,15.882 157.908,16.08 L157.908,21.786 C157.53,22.218 156.792,22.992 155.55,22.992 C154.344,22.992 153.804,22.236 153.804,20.58 L153.804,16.08 C153.804,15.882 153.624,15.684 153.408,15.684 L152.868,15.684 C152.634,15.684 152.472,15.882 152.472,16.08 L152.472,20.562 C152.472,22.758 153.048,24.198 155.442,24.198 Z M169.166,24.198 C171.29,24.198 172.892,22.2 172.892,19.824 C172.892,17.394 171.452,15.504 168.968,15.504 C167.582,15.504 166.664,16.026 166.664,16.026 L166.664,11.796 C166.664,11.598 166.466,11.4 166.268,11.4 L165.728,11.4 C165.512,11.4 165.35,11.598 165.35,11.796 L165.35,23.604 C165.35,23.82 165.53,24 165.746,24 L166.07,24 C166.268,24 166.394,23.856 166.43,23.658 L166.538,23.118 C166.538,23.118 167.474,24.198 169.166,24.198 Z M169.022,22.992 C167.528,22.992 166.664,21.624 166.664,21.624 L166.664,17.232 L166.74,17.1933333 C166.9875,17.0725 167.81,16.71 168.77,16.71 C170.588,16.71 171.542,18.186 171.542,19.842 C171.542,21.462 170.534,22.992 169.022,22.992 Z M176.046,28.284 C176.19,28.284 176.352,28.158 176.406,28.032 L181.608,16.152 C181.734,15.882 181.608,15.684 181.284,15.684 L180.618,15.684 C180.456,15.684 180.312,15.774 180.258,15.918 L177.45,22.524 L177.414,22.524 L175.056,15.918 C175.002,15.774 174.858,15.684 174.696,15.684 L173.94,15.684 C173.616,15.684 173.508,15.864 173.616,16.134 L176.658,23.982 L175.056,27.78 C174.93,28.068 175.074,28.284 175.398,28.284 L176.046,28.284 Z" id="Broughttoyouby" fill="#222222"></path>
            <g id="ELxulGhTqqjKc3yEXTch0w-Trustpilot-logo-148x36px" transform="translate(190.000000, 2.000000)">
                <g id="Type" transform="translate(27.000000, 9.000000)" fill="#191919">
                    <path d="M0.0641863834,0.0543409629 L10.5815838,0.0543409629 L10.5815838,1.99250197 L6.44614679,1.99250197 L6.44614679,12.887865 L4.17211492,12.887865 L4.17211492,1.99250197 L0.0550169,1.99250197 L0.0550169,0.0543409629 L0.0641863834,0.0543409629 Z M10.1322791,3.59556038 L12.0762096,3.59556038 L12.0762096,5.38881216 L12.1128875,5.38881216 C12.1770739,5.135221 12.2962771,4.89068666 12.4704973,4.65520915 C12.6447175,4.41973165 12.8556157,4.19331097 13.1031917,4.0031176 C13.3507678,3.80386741 13.6258523,3.64990134 13.9284452,3.52310576 C14.2310381,3.40536701 14.5428006,3.34196922 14.854563,3.34196922 C15.0929696,3.34196922 15.2671898,3.35102605 15.3588846,3.36008287 C15.4505795,3.3691397 15.5422742,3.38725336 15.6431386,3.39631018 L15.6431386,5.3706985 C15.4964268,5.34352802 15.3497151,5.32541436 15.1938339,5.30730071 C15.0379527,5.28918706 14.8912409,5.28013023 14.7445292,5.28013023 C14.3960888,5.28013023 14.0659874,5.35258485 13.754225,5.48843725 C13.4424626,5.62428966 13.1765476,5.83259668 12.9473105,6.09524467 C12.7180734,6.36694949 12.5346837,6.69299526 12.3971415,7.09149567 C12.2595992,7.48999607 12.1954129,7.9428374 12.1954129,8.45907654 L12.1954129,12.8788082 L10.1231096,12.8788082 L10.1231096,3.59556038 L10.1322791,3.59556038 Z M25.1702317,12.887865 L23.1346065,12.887865 L23.1346065,11.5927387 L23.0979286,11.5927387 C22.841183,12.0636938 22.4652342,12.4350236 21.9609126,12.7157853 C21.456591,12.996547 20.9430999,13.1414562 20.4204394,13.1414562 C19.1825592,13.1414562 18.2839498,12.8425809 17.7337808,12.2357734 C17.1836118,11.6289661 16.9085273,10.7142266 16.9085273,9.49155482 L16.9085273,3.59556038 L18.9808305,3.59556038 L18.9808305,9.29230469 C18.9808305,10.1074191 19.1367117,10.687056 19.4576436,11.0221587 C19.7694061,11.3572613 20.2187108,11.529341 20.7872187,11.529341 C21.2273539,11.529341 21.5849638,11.4659432 21.8783872,11.3300908 C22.1718107,11.1942383 22.4102173,11.0221587 22.5844375,10.7957379 C22.7678272,10.5783741 22.8961999,10.3066693 22.9787253,9.99873714 C23.0612506,9.69080502 23.0979286,9.35570244 23.0979286,8.99342939 L23.0979286,3.60461721 L25.1702317,3.60461721 L25.1702317,12.887865 Z M28.7004829,9.90816893 C28.7646692,10.5059195 28.9939063,10.9225336 29.3881941,11.1670679 C29.7916514,11.4025454 30.2684645,11.529341 30.827803,11.529341 C31.0203621,11.529341 31.2404298,11.5112273 31.4880058,11.4840568 C31.7355819,11.4568864 31.9739884,11.3934885 32.1848865,11.3119771 C32.4049542,11.2304657 32.5791743,11.1036701 32.7258861,10.9406472 C32.8634283,10.7776243 32.9276147,10.5693173 32.9184452,10.3066693 C32.9092757,10.0440213 32.8084114,9.82665748 32.6250217,9.66363456 C32.4416321,9.49155482 32.212395,9.36475926 31.928141,9.25607734 C31.643887,9.15645224 31.3229551,9.06588396 30.9561758,8.99342939 C30.5893965,8.92097475 30.2226171,8.8394633 29.8466683,8.75795184 C29.46155,8.67644038 29.0856011,8.56775846 28.7279913,8.45001972 C28.3703815,8.33228098 28.0494495,8.16925806 27.7651955,7.96095104 C27.4809416,7.76170084 27.2517045,7.49905289 27.0866538,7.18206395 C26.9124336,6.86507498 26.8299083,6.47563142 26.8299083,6.0046764 C26.8299083,5.49749408 26.958281,5.08088003 27.2058571,4.7367206 C27.4534331,4.39256117 27.774365,4.12085636 28.1503139,3.91254933 C28.5354322,3.70424231 28.9572284,3.55933307 29.424872,3.4687648 C29.8925157,3.38725336 30.3418204,3.34196922 30.7636166,3.34196922 C31.2495993,3.34196922 31.7172429,3.39631018 32.1573781,3.49593528 C32.5975133,3.59556038 33.0009705,3.75858327 33.3585804,3.99406077 C33.7161903,4.22048146 34.0096137,4.51935675 34.2480203,4.88162984 C34.4864269,5.24390292 34.6331386,5.68768745 34.697325,6.2039266 L32.5333269,6.2039266 C32.4324626,5.71485793 32.212395,5.37975533 31.8547851,5.21673244 C31.4971753,5.04465272 31.0845486,4.96314128 30.6260744,4.96314128 C30.4793626,4.96314128 30.3051425,4.97219811 30.1034138,4.99936859 C29.9016852,5.02653907 29.7182955,5.0718232 29.5349058,5.135221 C29.3606856,5.19861879 29.2139739,5.29824389 29.0856011,5.42503946 C28.9663979,5.55183505 28.9022115,5.71485793 28.9022115,5.92316495 C28.9022115,6.17675612 28.9939063,6.37600632 29.1681265,6.52997238 C29.3423467,6.68393844 29.5715837,6.81073402 29.8558377,6.91941594 C30.1400918,7.01904104 30.4610237,7.10960931 30.827803,7.18206395 C31.1945823,7.25451852 31.5705312,7.33602998 31.9556494,7.41754143 C32.3315982,7.49905289 32.6983776,7.60773481 33.0651569,7.72547355 C33.4319363,7.8432123 33.7528682,8.00623521 34.0371222,8.21454223 C34.3213762,8.42284925 34.5506132,8.67644038 34.7248334,8.9843725 C34.8990536,9.29230469 34.9907485,9.6817482 34.9907485,10.1345896 C34.9907485,10.687056 34.8623757,11.1489542 34.6056301,11.5383978 C34.3488846,11.9187845 34.0187832,12.2357734 33.6153259,12.471251 C33.2118687,12.7067285 32.7533945,12.887865 32.2582424,12.996547 C31.7630903,13.1052289 31.2679382,13.1595699 30.7819556,13.1595699 C30.1859391,13.1595699 29.6357702,13.0961721 29.1314486,12.9603197 C28.627127,12.8244672 28.1869918,12.625217 27.8202125,12.3625691 C27.4534331,12.0908642 27.1600097,11.7557617 26.9491115,11.3572613 C26.7382134,10.9587609 26.6281796,10.478749 26.6098406,9.92628258 L28.7004829,9.92628258 L28.7004829,9.90816893 Z M35.5409174,3.59556038 L37.1088991,3.59556038 L37.1088991,0.806057614 L39.1812023,0.806057614 L39.1812023,3.59556038 L41.0517769,3.59556038 L41.0517769,5.12616417 L39.1812023,5.12616417 L39.1812023,10.0893054 C39.1812023,10.3066693 39.1903718,10.4878058 39.2087108,10.6508287 C39.2270498,10.8047948 39.2728972,10.9406472 39.3370835,11.0493291 C39.40127,11.1580111 39.5021342,11.2395225 39.6396765,11.2938634 C39.7772187,11.3482044 39.9514389,11.3753749 40.1898455,11.3753749 C40.3365572,11.3753749 40.4832689,11.3753749 40.6299807,11.3663181 C40.7766924,11.3572613 40.9234042,11.3391476 41.0701159,11.3029203 L41.0701159,12.887865 C40.8408788,12.9150355 40.6116417,12.9331491 40.4007436,12.9603197 C40.180676,12.9874901 39.9606084,12.996547 39.7313713,12.996547 C39.1812023,12.996547 38.7410671,12.942206 38.4109657,12.8425809 C38.0808643,12.7429558 37.8149493,12.5889897 37.6315597,12.3897395 C37.4390005,12.1904893 37.3197972,11.945955 37.2464413,11.6470797 C37.1822549,11.3482044 37.1364076,11.004045 37.1272381,10.6236583 L37.1272381,5.14427782 L35.5592564,5.14427782 L35.5592564,3.59556038 L35.5409174,3.59556038 Z M42.5188943,3.59556038 L44.4811637,3.59556038 L44.4811637,4.85445935 L44.5178416,4.85445935 C44.8112651,4.31104973 45.2147223,3.93066298 45.7373829,3.69518548 C46.2600435,3.45970797 46.8193819,3.34196922 47.4337373,3.34196922 C48.1764655,3.34196922 48.8183293,3.4687648 49.3684983,3.73141278 C49.9186673,3.98500394 50.3771415,4.3382202 50.7439208,4.79106156 C51.1107001,5.24390292 51.3766151,5.76919889 51.5600048,6.36694949 C51.7433945,6.96470008 51.8350893,7.60773481 51.8350893,8.28699687 C51.8350893,8.91191793 51.752564,9.51872535 51.5875133,10.0983622 C51.4224626,10.687056 51.1748865,11.2032952 50.8447851,11.6561366 C50.5146837,12.1089779 50.0928875,12.4621942 49.5793964,12.7338989 C49.0659054,13.0056038 48.4698889,13.1414562 47.7730082,13.1414562 C47.4704152,13.1414562 47.1678223,13.1142857 46.8652293,13.0599448 C46.5626364,13.0056038 46.269213,12.9150355 45.9941284,12.7972968 C45.7190439,12.679558 45.4531289,12.5255919 45.2238918,12.3353985 C44.9854853,12.1452052 44.7929261,11.9278413 44.6278754,11.683307 L44.5911975,11.683307 L44.5911975,16.3204025 L42.5188943,16.3204025 L42.5188943,3.59556038 Z M49.7627861,8.25076952 C49.7627861,7.83415548 49.7077692,7.42659825 49.5977354,7.02809787 C49.4877016,6.62959748 49.3226509,6.28543804 49.1025833,5.97750592 C48.8825157,5.66957379 48.6074312,5.42503946 48.2864993,5.24390292 C47.9563979,5.06276638 47.5804491,4.96314128 47.1586528,4.96314128 C46.2875519,4.96314128 45.6273491,5.26201657 45.1872139,5.85976717 C44.7470787,6.45751776 44.5270111,7.25451852 44.5270111,8.25076952 C44.5270111,8.72172455 44.582028,9.15645224 44.7012313,9.55495264 C44.8204346,9.95345304 44.9854853,10.2976124 45.2238918,10.5874309 C45.4531289,10.8772494 45.7282134,11.1036701 46.0491453,11.266693 C46.3700772,11.4387727 46.7460261,11.5202841 47.1678223,11.5202841 C47.6446354,11.5202841 48.0389233,11.420659 48.3690247,11.2304657 C48.6991261,11.0402723 48.965041,10.7866811 49.1759392,10.4878058 C49.3868373,10.1798737 49.5427185,9.8357143 49.6344133,9.44627072 C49.7169387,9.05682714 49.7627861,8.65832674 49.7627861,8.25076952 Z M53.42141,0.0543409629 L55.4937132,0.0543409629 L55.4937132,1.99250197 L53.42141,1.99250197 L53.42141,0.0543409629 Z M53.42141,3.59556038 L55.4937132,3.59556038 L55.4937132,12.887865 L53.42141,12.887865 L53.42141,3.59556038 Z M57.3459488,0.0543409629 L59.418252,0.0543409629 L59.418252,12.887865 L57.3459488,12.887865 L57.3459488,0.0543409629 Z M65.772704,13.1414562 C65.0208064,13.1414562 64.3514341,13.0146606 63.7645871,12.7701263 C63.1777402,12.5255919 62.6825881,12.1814325 62.2699614,11.7557617 C61.8665041,11.3210339 61.5547417,10.8047948 61.3438435,10.2070442 C61.1329454,9.60929363 61.0229116,8.94814522 61.0229116,8.23265588 C61.0229116,7.52622335 61.1329454,6.87413181 61.3438435,6.27638122 C61.5547417,5.67863062 61.8665041,5.16239147 62.2699614,4.72766378 C62.6734186,4.29293607 63.1777402,3.95783347 63.7645871,3.71329913 C64.3514341,3.4687648 65.0208064,3.34196922 65.772704,3.34196922 C66.5246016,3.34196922 67.1939739,3.4687648 67.7808209,3.71329913 C68.3676678,3.95783347 68.8628199,4.3019929 69.2754467,4.72766378 C69.6789039,5.16239147 69.9906663,5.67863062 70.2015645,6.27638122 C70.4124626,6.87413181 70.5224964,7.52622335 70.5224964,8.23265588 C70.5224964,8.94814522 70.4124626,9.60929363 70.2015645,10.2070442 C69.9906663,10.8047948 69.6789039,11.3210339 69.2754467,11.7557617 C68.8719894,12.1904893 68.3676678,12.5255919 67.7808209,12.7701263 C67.1939739,13.0146606 66.5246016,13.1414562 65.772704,13.1414562 Z M65.772704,11.5202841 C66.2311782,11.5202841 66.6346355,11.420659 66.9739063,11.2304657 C67.3131772,11.0402723 67.5882617,10.7866811 67.8083293,10.478749 C68.0283969,10.1708169 68.1842781,9.81760065 68.2943119,9.42815708 C68.3951762,9.0387135 68.4501932,8.6402131 68.4501932,8.23265588 C68.4501932,7.83415548 68.3951762,7.4447119 68.2943119,7.04621152 C68.1934476,6.64771113 68.0283969,6.3035517 67.8083293,5.99561957 C67.5882617,5.68768745 67.3131772,5.44315312 66.9739063,5.25295975 C66.6346355,5.06276638 66.2311782,4.96314128 65.772704,4.96314128 C65.3142299,4.96314128 64.9107726,5.06276638 64.5715017,5.25295975 C64.2322308,5.44315312 63.9571463,5.69674428 63.7370787,5.99561957 C63.5170111,6.3035517 63.3611299,6.64771113 63.2510961,7.04621152 C63.1502317,7.4447119 63.0952149,7.83415548 63.0952149,8.23265588 C63.0952149,8.6402131 63.1502317,9.0387135 63.2510961,9.42815708 C63.3519604,9.81760065 63.5170111,10.1708169 63.7370787,10.478749 C63.9571463,10.7866811 64.2322308,11.0402723 64.5715017,11.2304657 C64.9107726,11.4297159 65.3142299,11.5202841 65.772704,11.5202841 Z M71.1276826,3.59556038 L72.695664,3.59556038 L72.695664,0.806057614 L74.7679671,0.806057614 L74.7679671,3.59556038 L76.6385415,3.59556038 L76.6385415,5.12616417 L74.7679671,5.12616417 L74.7679671,10.0893054 C74.7679671,10.3066693 74.7771364,10.4878058 74.7954759,10.6508287 C74.8138146,10.8047948 74.8596621,10.9406472 74.9238483,11.0493291 C74.9880345,11.1580111 75.0888989,11.2395225 75.2264413,11.2938634 C75.3639838,11.3482044 75.5382037,11.3753749 75.7766106,11.3753749 C75.9233217,11.3753749 76.0700336,11.3753749 76.2167454,11.3663181 C76.3634572,11.3572613 76.5101691,11.3391476 76.6568809,11.3029203 L76.6568809,12.887865 C76.4276435,12.9150355 76.1984067,12.9331491 75.9875086,12.9603197 C75.7674405,12.9874901 75.5473731,12.996547 75.3181363,12.996547 C74.7679671,12.996547 74.3278323,12.942206 73.9977304,12.8425809 C73.6676293,12.7429558 73.4017144,12.5889897 73.2183244,12.3897395 C73.0257651,12.1904893 72.906562,11.945955 72.8332065,11.6470797 C72.7690195,11.3482044 72.723172,11.004045 72.7140027,10.6236583 L72.7140027,5.14427782 L71.1460213,5.14427782 L71.1460213,3.59556038 L71.1276826,3.59556038 Z" id="Shape"></path>
                </g>
                <g id="Star">
                    <polygon id="Shape" fill="#00B67A" points="24.5794381 9.01794021 15.1934086 9.01794021 12.294249 0 9.38602944 9.01794021 0 9.00879424 7.60123424 14.5878445 4.69301471 23.5966386 12.294249 18.0267344 19.8864233 23.5966386 16.9872637 14.5878445 24.5794381 9.01794021"></polygon>
                    <polygon id="Shape" fill="#005128" points="17.6395746 16.6273988 16.9872637 14.5878445 12.294249 18.0267344"></polygon>
                </g>
            </g>
        </g>
    </g>
</svg>